<svg width="1080" height="1080" viewBox="0 0 1080 1080" fill="none" xmlns="http://www.w3.org/2000/svg">
<path d="M572.592 66.3416C573.254 64.5978 571.858 62.7605 570.072 63.0257L421.642 85.0594C419.873 85.322 419.022 87.4585 420.094 88.9442L442.031 119.338C442.273 119.674 442.428 120.068 442.481 120.484L456.874 233.552C457.007 234.595 456.469 235.613 455.566 236.088C423.904 252.737 416.472 277.273 425.138 349.578C425.263 350.624 426.027 351.495 427.022 351.696C451.281 356.59 472.337 359.735 491.191 361.212C519.524 363.432 542.884 361.887 564.672 356.856C591.852 350.58 616.583 338.878 645.464 322.293C646.359 321.779 646.829 320.696 646.625 319.655C635.051 260.636 620.484 239.152 583.447 220.002C582.743 219.638 582.245 218.93 582.142 218.12L565.34 86.2713C565.287 85.8592 565.336 85.44 565.483 85.0534L572.592 66.3416Z" fill="#FF6600"/>
<path d="M502.342 394.295L556.12 532.727C558.004 537.576 564.911 536.377 565.177 531.156L572.534 386.465C572.703 383.151 569.71 380.628 566.599 381.384C548.673 385.739 529.382 387.804 506.863 387.507C503.463 387.462 501.07 391.019 502.342 394.295Z" fill="#868686"/>
<path d="M380.229 274.375C380.249 274.47 380.269 274.566 380.297 274.659L407.824 365.614C407.852 365.707 407.875 365.802 407.883 365.899C407.974 366.9 407.455 367.868 406.58 368.319C329.543 407.99 246.239 445.394 168.937 517.847C168.262 518.479 167.292 518.66 166.461 518.313C166.314 518.252 166.186 518.155 166.069 518.048L90.2684 448.98C90.1512 448.874 90.0194 448.784 89.8881 448.695C88.8016 447.959 88.451 446.485 89.2348 445.373C127.722 390.763 291.291 283.087 377.747 272.476C378.942 272.329 379.982 273.168 380.229 274.375Z" fill="white"/>
<path d="M194.34 542.494C277.343 476.24 328.598 445.913 424.586 404.323C425.606 403.881 426.803 404.23 427.436 405.171L547.063 583.184C547.315 583.558 547.46 583.998 547.483 584.453L556.12 753.766C556.196 755.266 554.964 756.482 553.527 756.326L343.835 733.516C343.222 733.449 342.659 733.135 342.267 732.641L193.941 546.001C193.094 544.935 193.285 543.336 194.34 542.494Z" fill="white"/>
<path d="M664.783 387.774L582.384 556.608C582.179 557.027 582.095 557.497 582.142 557.963L601.75 756.326C601.906 757.906 603.45 758.914 604.888 758.374L846.689 667.608C847.374 667.35 847.906 666.778 848.129 666.057L914.122 452.51C914.499 451.293 913.877 449.967 912.737 449.487C822.161 411.351 786.909 404.162 667.243 386.465C666.246 386.318 665.238 386.841 664.783 387.774Z" fill="white"/>
<path d="M659.014 243.397L668 349.578C668.117 350.799 669.092 351.74 670.272 351.781C766.962 358.511 839.943 375.533 918.142 417.24C919.105 417.847 920.35 417.669 921.112 416.807L981.818 341.158C982.648 340.219 982.66 338.791 981.811 337.87C913.807 264.118 746.203 226.01 660.899 240.772C659.689 240.981 658.892 242.128 659.014 243.397Z" fill="white"/>
<path d="M572.592 66.3416C573.254 64.5978 571.858 62.7605 570.072 63.0257L421.642 85.0594C419.873 85.322 419.022 87.4585 420.094 88.9442L442.031 119.338C442.273 119.674 442.428 120.068 442.481 120.484L456.874 233.552C457.007 234.595 456.469 235.613 455.566 236.088C423.904 252.737 416.472 277.273 425.138 349.578C425.263 350.624 426.027 351.495 427.022 351.696C451.281 356.59 472.337 359.735 491.191 361.212C519.524 363.432 542.884 361.887 564.672 356.856C591.852 350.58 616.583 338.878 645.464 322.293C646.359 321.779 646.829 320.696 646.625 319.655C635.051 260.636 620.484 239.152 583.447 220.002C582.743 219.638 582.245 218.93 582.142 218.12L565.34 86.2713C565.287 85.8592 565.336 85.44 565.483 85.0534L572.592 66.3416Z" stroke="black" stroke-width="9"/>
<path d="M502.342 394.295L556.12 532.727C558.004 537.576 564.911 536.377 565.177 531.156L572.534 386.465C572.703 383.151 569.71 380.628 566.599 381.384C548.673 385.739 529.382 387.804 506.863 387.507C503.463 387.462 501.07 391.019 502.342 394.295Z" stroke="black" stroke-width="9"/>
<path d="M380.229 274.375C380.249 274.47 380.269 274.566 380.297 274.659L407.824 365.614C407.852 365.707 407.875 365.802 407.883 365.899C407.974 366.9 407.455 367.868 406.58 368.319C329.543 407.99 246.239 445.394 168.937 517.847C168.262 518.479 167.292 518.66 166.461 518.313C166.314 518.252 166.186 518.155 166.069 518.048L90.2684 448.98C90.1512 448.874 90.0194 448.784 89.8881 448.695C88.8016 447.959 88.451 446.485 89.2348 445.373C127.722 390.763 291.291 283.087 377.747 272.476C378.942 272.329 379.982 273.168 380.229 274.375Z" stroke="black" stroke-width="9"/>
<path d="M194.34 542.494C277.343 476.24 328.598 445.913 424.586 404.323C425.606 403.881 426.803 404.23 427.436 405.171L547.063 583.184C547.315 583.558 547.46 583.998 547.483 584.453L556.12 753.766C556.196 755.266 554.964 756.482 553.527 756.326L343.835 733.516C343.222 733.449 342.659 733.135 342.267 732.641L193.941 546.001C193.094 544.935 193.285 543.336 194.34 542.494Z" stroke="black" stroke-width="9"/>
<path d="M664.783 387.774L582.384 556.608C582.179 557.027 582.095 557.497 582.142 557.963L601.75 756.326C601.906 757.906 603.45 758.914 604.888 758.374L846.689 667.608C847.374 667.35 847.906 666.778 848.129 666.057L914.122 452.51C914.499 451.293 913.877 449.967 912.737 449.487C822.161 411.351 786.909 404.162 667.243 386.465C666.246 386.318 665.238 386.841 664.783 387.774Z" stroke="black" stroke-width="9"/>
<path d="M659.014 243.397L668 349.578C668.117 350.799 669.092 351.74 670.272 351.781C766.962 358.511 839.943 375.533 918.142 417.24C919.105 417.847 920.35 417.669 921.112 416.807L981.818 341.158C982.648 340.219 982.66 338.791 981.811 337.87C913.807 264.118 746.203 226.01 660.899 240.772C659.689 240.981 658.892 242.128 659.014 243.397Z" stroke="black" stroke-width="9"/>
<path d="M391.85 855.3C388.05 851.1 383.55 847.8 378.35 845.4C373.15 843 367.9 841.8 362.6 841.8C357.4 841.8 352.5 842.8 347.9 844.8C343.4 846.7 339.4 849.4 335.9 852.9C332.5 856.4 329.85 860.5 327.95 865.2C326.05 869.8 325.1 874.8 325.1 880.2C325.1 885.5 326.05 890.5 327.95 895.2C329.85 899.8 332.5 903.85 335.9 907.35C339.4 910.85 343.4 913.6 347.9 915.6C352.5 917.6 357.4 918.6 362.6 918.6C367.9 918.6 373.1 917.5 378.2 915.3C383.3 913 387.85 909.9 391.85 906L402.35 916.95C398.85 920.45 394.85 923.5 390.35 926.1C385.95 928.7 381.3 930.7 376.4 932.1C371.6 933.5 366.7 934.2 361.7 934.2C354 934.2 346.85 932.85 340.25 930.15C333.65 927.35 327.85 923.5 322.85 918.6C317.95 913.7 314.1 908 311.3 901.5C308.5 894.9 307.1 887.85 307.1 880.35C307.1 872.85 308.5 865.9 311.3 859.5C314.1 853 318 847.3 323 842.4C328.1 837.5 333.95 833.7 340.55 831C347.25 828.3 354.5 826.95 362.3 826.95C367.3 826.95 372.2 827.6 377 828.9C381.8 830.2 386.35 832.05 390.65 834.45C394.95 836.85 398.8 839.75 402.2 843.15L391.85 855.3ZM427.89 828H502.89V843.15H445.59V872.7H496.89V887.7H445.59V917.85H504.69V933H427.89V828ZM705.363 828C718.863 828 729.263 831.15 736.563 837.45C743.963 843.65 747.663 852.4 747.663 863.7C747.663 875.5 743.963 884.7 736.563 891.3C729.263 897.8 718.863 901.05 705.363 901.05H680.463V933H662.763V828H705.363ZM705.363 885.9C713.463 885.9 719.713 884.15 724.113 880.65C728.613 877.05 730.863 871.55 730.863 864.15C730.863 857.05 728.613 851.8 724.113 848.4C719.713 844.9 713.463 843.15 705.363 843.15H680.463V885.9H705.363ZM705.963 894.15H723.363L749.463 933H729.363L705.963 894.15ZM778.661 828H796.361V917.85H841.811V933H778.661V828Z" fill="black"/>
<path d="M580.777 826.95C588.577 826.95 595.827 828.3 602.527 831C609.327 833.7 615.227 837.5 620.227 842.4C625.327 847.3 629.277 853 632.077 859.5C634.977 865.9 636.427 872.85 636.427 880.35C636.427 887.85 634.977 894.9 632.077 901.5C629.277 908 625.327 913.7 620.227 918.6C615.227 923.5 609.327 927.35 602.527 930.15C595.827 932.85 588.577 934.2 580.777 934.2C572.977 934.2 565.677 932.85 558.877 930.15C552.177 927.35 546.277 923.5 541.177 918.6C536.177 913.7 532.227 908 529.327 901.5C526.527 894.9 525.127 887.85 525.127 880.35C525.127 872.85 526.527 865.85 529.327 859.35C532.227 852.85 536.177 847.2 541.177 842.4C546.277 837.5 552.177 833.7 558.877 831C565.677 828.3 572.977 826.95 580.777 826.95ZM580.927 841.95C575.727 841.95 570.827 842.95 566.227 844.95C561.727 846.85 557.727 849.55 554.227 853.05C550.727 856.55 547.977 860.65 545.977 865.35C544.077 869.95 543.127 874.95 543.127 880.35C543.127 885.75 544.127 890.8 546.127 895.5C548.127 900.2 550.877 904.35 554.377 907.95C557.877 911.45 561.877 914.2 566.377 916.2C570.977 918.2 575.827 919.2 580.927 919.2C586.027 919.2 590.827 918.2 595.327 916.2C599.927 914.2 603.927 911.45 607.327 907.95C610.727 904.35 613.377 900.2 615.277 895.5C617.277 890.8 618.277 885.75 618.277 880.35C618.277 874.95 617.277 869.95 615.277 865.35C613.377 860.65 610.727 856.55 607.327 853.05C603.927 849.55 599.927 846.85 595.327 844.95C590.827 842.95 586.027 841.95 580.927 841.95Z" fill="#FF6600"/>
</svg>
